{"title":"Starship Troopers Invasion 2012 1080p BluRay","uid":12518971,"size":7037982239,"categoryP":"video","categoryS":"hd___movies","magnet":"?xt=urn:btih:18ff880bf844ecc309d71cd4984485320669f604&amp;dn=Starship+Troopers+Invasion+2012+1080p+BluRay&amp;tr=udp%3A%2F%2Ftracker.leechers-paradise.org%3A6969&amp;tr=udp%3A%2F%2Fzer0day.ch%3A1337&amp;tr=udp%3A%2F%2Fopen.demonii.com%3A1337&amp;tr=udp%3A%2F%2Ftracker.coppersurfer.tk%3A6969&amp;tr=udp%3A%2F%2Fexodus.desync.com%3A6969","seeders":1,"leechers":1,"uploader":"Joker__TPB","files":3,"time":1443821973,"description":"===================================================================================\r\nOn an asteroid| the Terran Federation's Fort Casey is on top of a bug hive. The Starship Alesia begins to deploy its troops to seize and control the hanger and\r\nrescue any survivors. 'Alpha' team landed without much resistance from the bugs| after they rendezvous with what's left of Fort Casey's troopers| LTA Daugherty then\r\ndecided to hold till the John A. Warden evacuates while the Alesia stands by for immediate evacuation.\r\n===================================================================================\r\nVideo\r\nID                                       : 1\r\nFormat                                   : AVC\r\nFormat/Info                              : Advanced Video Codec\r\nFormat profile                           :   \r\nFormat settings, CABAC                   : Yes\r\nFormat settings, ReFrames                : 4 frames\r\nCodec ID                                 : V_MPEG4/ISO/AVC\r\nDuration                                 : 1h 28mn\r\nBit rate                                 : 9 059 Kbps\r\nWidth                                    : 1 920 pixels\r\nHeight                                   : 1 080 pixels\r\nDisplay aspect ratio                     : 16:9\r\nFrame rate mode                          : Constant\r\nFrame rate                               : 23.976 fps\r\nColor space                              : YUV\r\nChroma subsampling                       : 4:2:0\r\nBit depth                                : 8 bits\r\nScan type                                : Progressive\r\nBits/(Pixel*Frame)                       : 0.182\r\nStream size                              : 5.49 GiB (84%)\r\nWriting library                          : x264 core 125 r2208 d9d2288\r\nEncoding settings                        : cabac=1 / ref=4 / deblock=1:0:0 / analyse=0x3:0x133 / me=umh / subme=7 / psy=1 / psy_rd=1.00:0.00 / mixed_ref=1 / me_range=16 / chroma_me=1 / trellis=1 / 8x8dct=1 / cqm=0 / deadzone=21,11 / fast_pskip=0 / chroma_qp_offset=-2 / threads=12 / lookahead_threads=2 / sliced_threads=0 / nr=0 / decimate=1 / interlaced=0 / bluray_compat=0 / constrained_intra=0 / bframes=3 / b_pyramid=2 / b_adapt=2 / b_bias=0 / direct=3 / weightb=1 / open_gop=0 / weightp=2 / keyint=250 / keyint_min=23 / scenecut=40 / intra_refresh=0 / rc_lookahead=50 / rc=2pass / mbtree=1 / bitrate=9059 / ratetol=1.0 / qcomp=0.60 / qpmin=0 / qpmax=69 / qpstep=4 / cplxblur=20.0 / qblur=0.5 / ip_ratio=1.40 / aq=1:1.00\r\nLanguage                                 : English\r\nDefault                                  : Yes\r\nForced                                   : No\r\n\r\nAudio\r\nID                                       : 2\r\nFormat                                   : DTS\r\nFormat/Info                              : Digital Theater Systems\r\nMode                                     : 16\r\nFormat settings, Endianness              : Big\r\nCodec ID                                 : A_DTS\r\nDuration                                 : 1h 28mn\r\nBit rate mode                            : Constant\r\nBit rate                                 : 1 509 Kbps\r\nChannel(s)                               : 6 channels\r\nChannel positions                        : Front: L C R, Side: L R, LFE\r\nSampling rate                            : 48.0 KHz\r\nBit depth                                : 24 bits\r\nCompression mode                         : Lossy\r\nStream size                              : 958 MiB (14%)\r\nLanguage                                 : English\r\nDefault                                  : Yes\r\nForced                                   : No\r\n\r\nMenu\r\n00:00:00.000                             : en:00:00:00.000\r\n00:06:01.611                             : en:00:06:01.611\r\n00:10:44.394                             : en:00:10:44.394\r\n00:16:59.310                             : en:00:16:59.310\r\n00:20:35.192                             : en:00:20:35.192\r\n00:26:48.440                             : en:00:26:48.440\r\n00:32:48.133                             : en:00:32:48.133\r\n00:39:01.798                             : en:00:39:01.798\r\n00:44:34.422                             : en:00:44:34.422\r\n00:51:01.517                             : en:00:51:01.517\r\n00:56:55.621                             : en:00:56:55.621\r\n01:00:33.755                             : en:01:00:33.755\r\n01:04:49.135                             : en:01:04:49.135\r\n01:08:09.168                             : en:01:08:09.168\r\n01:13:16.225                             : en:01:13:16.225\r\n01:18:14.189                             : en:01:18:14.189\r\n===================================================================================","torrent":{"xt":"urn:btih:18ff880bf844ecc309d71cd4984485320669f604","amp;dn":"Starship+Troopers+Invasion+2012+1080p+BluRay","amp;tr":["udp%3A%2F%2Ftracker.leechers-paradise.org%3A6969","udp%3A%2F%2Fzer0day.ch%3A1337","udp%3A%2F%2Fopen.demonii.com%3A1337","udp%3A%2F%2Ftracker.coppersurfer.tk%3A6969","udp%3A%2F%2Fexodus.desync.com%3A6969"],"infoHash":"18ff880bf844ecc309d71cd4984485320669f604","infoHashBuffer":{"type":"Buffer","data":[24,255,136,11,248,68,236,195,9,215,28,212,152,68,133,50,6,105,246,4]},"announce":[],"urlList":[]}}